<mxfile host="app.diagrams.net" modified="2023-12-15T20:11:49.705Z" agent="Mozilla/5.0 (Macintosh; Intel Mac OS X 10_15_7) AppleWebKit/537.36 (KHTML, like Gecko) Chrome/120.0.0.0 Safari/537.36" etag="yCb7NzMndn-l6uXaepwt" version="22.1.11" type="device">
  <diagram id="C5RBs43oDa-KdzZeNtuy" name="Page-1">
    <mxGraphModel dx="1262" dy="831" grid="1" gridSize="10" guides="1" tooltips="1" connect="1" arrows="1" fold="1" page="1" pageScale="1" pageWidth="827" pageHeight="1169" math="0" shadow="0">
      <root>
        <mxCell id="WIyWlLk6GJQsqaUBKTNV-0" />
        <mxCell id="WIyWlLk6GJQsqaUBKTNV-1" parent="WIyWlLk6GJQsqaUBKTNV-0" />
        <mxCell id="Vov0EzuTKuRAHN_TWs5X-8" style="edgeStyle=orthogonalEdgeStyle;rounded=0;orthogonalLoop=1;jettySize=auto;html=1;exitX=0.5;exitY=1;exitDx=0;exitDy=0;exitPerimeter=0;entryX=0.5;entryY=0;entryDx=0;entryDy=0;" parent="WIyWlLk6GJQsqaUBKTNV-1" source="Vov0EzuTKuRAHN_TWs5X-3" edge="1">
          <mxGeometry relative="1" as="geometry">
            <mxPoint x="170" y="110" as="targetPoint" />
          </mxGeometry>
        </mxCell>
        <mxCell id="Vov0EzuTKuRAHN_TWs5X-3" value="Начало" style="strokeWidth=1;html=1;shape=mxgraph.flowchart.terminator;whiteSpace=wrap;" parent="WIyWlLk6GJQsqaUBKTNV-1" vertex="1">
          <mxGeometry x="120" y="50" width="100" height="40" as="geometry" />
        </mxCell>
        <mxCell id="Vov0EzuTKuRAHN_TWs5X-16" value="А" style="ellipse;whiteSpace=wrap;html=1;" parent="WIyWlLk6GJQsqaUBKTNV-1" vertex="1">
          <mxGeometry x="135" y="470" width="70" height="65" as="geometry" />
        </mxCell>
        <mxCell id="Vov0EzuTKuRAHN_TWs5X-25" value="Конец" style="strokeWidth=1;html=1;shape=mxgraph.flowchart.terminator;whiteSpace=wrap;" parent="WIyWlLk6GJQsqaUBKTNV-1" vertex="1">
          <mxGeometry x="120" y="840" width="100" height="40" as="geometry" />
        </mxCell>
        <mxCell id="PPqwNFoW7ynKlwEGEWu8-25" style="edgeStyle=orthogonalEdgeStyle;rounded=0;orthogonalLoop=1;jettySize=auto;html=1;exitX=0.5;exitY=1;exitDx=0;exitDy=0;entryX=0.5;entryY=0;entryDx=0;entryDy=0;" edge="1" parent="WIyWlLk6GJQsqaUBKTNV-1" source="Vov0EzuTKuRAHN_TWs5X-28" target="PPqwNFoW7ynKlwEGEWu8-24">
          <mxGeometry relative="1" as="geometry" />
        </mxCell>
        <mxCell id="Vov0EzuTKuRAHN_TWs5X-28" value="А" style="ellipse;whiteSpace=wrap;html=1;" parent="WIyWlLk6GJQsqaUBKTNV-1" vertex="1">
          <mxGeometry x="340" y="50" width="70" height="65" as="geometry" />
        </mxCell>
        <mxCell id="Vov0EzuTKuRAHN_TWs5X-42" style="edgeStyle=orthogonalEdgeStyle;rounded=0;orthogonalLoop=1;jettySize=auto;html=1;exitX=0.5;exitY=1;exitDx=0;exitDy=0;entryX=0.5;entryY=0;entryDx=0;entryDy=0;" parent="WIyWlLk6GJQsqaUBKTNV-1" edge="1">
          <mxGeometry relative="1" as="geometry">
            <mxPoint x="570" y="479.9999999999999" as="sourcePoint" />
            <mxPoint x="570" y="510.0000000000001" as="targetPoint" />
          </mxGeometry>
        </mxCell>
        <mxCell id="Vov0EzuTKuRAHN_TWs5X-50" style="edgeStyle=orthogonalEdgeStyle;rounded=0;orthogonalLoop=1;jettySize=auto;html=1;exitX=0.5;exitY=1;exitDx=0;exitDy=0;entryX=0.5;entryY=0;entryDx=0;entryDy=0;" parent="WIyWlLk6GJQsqaUBKTNV-1" edge="1">
          <mxGeometry relative="1" as="geometry">
            <mxPoint x="570" y="570.0000000000001" as="sourcePoint" />
            <mxPoint x="570" y="605.0000000000001" as="targetPoint" />
          </mxGeometry>
        </mxCell>
        <mxCell id="Vov0EzuTKuRAHN_TWs5X-51" style="edgeStyle=orthogonalEdgeStyle;rounded=0;orthogonalLoop=1;jettySize=auto;html=1;exitX=0.5;exitY=1;exitDx=0;exitDy=0;endArrow=none;endFill=0;" parent="WIyWlLk6GJQsqaUBKTNV-1" edge="1">
          <mxGeometry relative="1" as="geometry">
            <mxPoint x="375" y="230" as="targetPoint" />
            <Array as="points">
              <mxPoint x="570" y="685" />
              <mxPoint x="690" y="685" />
              <mxPoint x="690" y="230" />
            </Array>
            <mxPoint x="570" y="665" as="sourcePoint" />
          </mxGeometry>
        </mxCell>
        <mxCell id="PPqwNFoW7ynKlwEGEWu8-22" style="edgeStyle=orthogonalEdgeStyle;rounded=0;orthogonalLoop=1;jettySize=auto;html=1;exitX=1;exitY=0.5;exitDx=0;exitDy=0;endArrow=none;endFill=0;" edge="1" parent="WIyWlLk6GJQsqaUBKTNV-1">
          <mxGeometry relative="1" as="geometry">
            <mxPoint x="260" y="565" as="targetPoint" />
            <mxPoint x="315" y="695" as="sourcePoint" />
          </mxGeometry>
        </mxCell>
        <mxCell id="PPqwNFoW7ynKlwEGEWu8-4" style="edgeStyle=orthogonalEdgeStyle;rounded=0;orthogonalLoop=1;jettySize=auto;html=1;exitX=0.5;exitY=1;exitDx=0;exitDy=0;entryX=0.5;entryY=0;entryDx=0;entryDy=0;" edge="1" parent="WIyWlLk6GJQsqaUBKTNV-1" source="PPqwNFoW7ynKlwEGEWu8-0" target="PPqwNFoW7ynKlwEGEWu8-2">
          <mxGeometry relative="1" as="geometry" />
        </mxCell>
        <mxCell id="PPqwNFoW7ynKlwEGEWu8-0" value="Для каждого кадра" style="shape=loopLimit;whiteSpace=wrap;html=1;" vertex="1" parent="WIyWlLk6GJQsqaUBKTNV-1">
          <mxGeometry x="105" y="110" width="130" height="60" as="geometry" />
        </mxCell>
        <mxCell id="PPqwNFoW7ynKlwEGEWu8-5" style="edgeStyle=orthogonalEdgeStyle;rounded=0;orthogonalLoop=1;jettySize=auto;html=1;exitX=0.5;exitY=1;exitDx=0;exitDy=0;entryX=0.5;entryY=0;entryDx=0;entryDy=0;" edge="1" parent="WIyWlLk6GJQsqaUBKTNV-1" source="PPqwNFoW7ynKlwEGEWu8-2" target="PPqwNFoW7ynKlwEGEWu8-3">
          <mxGeometry relative="1" as="geometry" />
        </mxCell>
        <mxCell id="PPqwNFoW7ynKlwEGEWu8-2" value="Провести симуляцию сцены" style="shape=process;whiteSpace=wrap;html=1;backgroundOutline=1;" vertex="1" parent="WIyWlLk6GJQsqaUBKTNV-1">
          <mxGeometry x="103.5" y="190" width="133" height="60" as="geometry" />
        </mxCell>
        <mxCell id="PPqwNFoW7ynKlwEGEWu8-8" style="edgeStyle=orthogonalEdgeStyle;rounded=0;orthogonalLoop=1;jettySize=auto;html=1;exitX=0.5;exitY=1;exitDx=0;exitDy=0;entryX=0.5;entryY=0;entryDx=0;entryDy=0;" edge="1" parent="WIyWlLk6GJQsqaUBKTNV-1" source="PPqwNFoW7ynKlwEGEWu8-3" target="PPqwNFoW7ynKlwEGEWu8-6">
          <mxGeometry relative="1" as="geometry" />
        </mxCell>
        <mxCell id="PPqwNFoW7ynKlwEGEWu8-3" value="Для каждого пикселя" style="shape=loopLimit;whiteSpace=wrap;html=1;" vertex="1" parent="WIyWlLk6GJQsqaUBKTNV-1">
          <mxGeometry x="105" y="280" width="130" height="60" as="geometry" />
        </mxCell>
        <mxCell id="PPqwNFoW7ynKlwEGEWu8-9" style="edgeStyle=orthogonalEdgeStyle;rounded=0;orthogonalLoop=1;jettySize=auto;html=1;exitX=0.5;exitY=1;exitDx=0;exitDy=0;entryX=0.5;entryY=0;entryDx=0;entryDy=0;" edge="1" parent="WIyWlLk6GJQsqaUBKTNV-1" source="PPqwNFoW7ynKlwEGEWu8-6" target="Vov0EzuTKuRAHN_TWs5X-16">
          <mxGeometry relative="1" as="geometry" />
        </mxCell>
        <mxCell id="PPqwNFoW7ynKlwEGEWu8-6" value="Создать луч" style="rounded=0;whiteSpace=wrap;html=1;absoluteArcSize=1;arcSize=14;strokeWidth=1;" vertex="1" parent="WIyWlLk6GJQsqaUBKTNV-1">
          <mxGeometry x="105" y="370" width="130" height="60" as="geometry" />
        </mxCell>
        <mxCell id="PPqwNFoW7ynKlwEGEWu8-19" style="edgeStyle=orthogonalEdgeStyle;rounded=0;orthogonalLoop=1;jettySize=auto;html=1;exitX=0.5;exitY=1;exitDx=0;exitDy=0;entryX=0.5;entryY=0;entryDx=0;entryDy=0;" edge="1" parent="WIyWlLk6GJQsqaUBKTNV-1" source="PPqwNFoW7ynKlwEGEWu8-10" target="PPqwNFoW7ynKlwEGEWu8-14">
          <mxGeometry relative="1" as="geometry" />
        </mxCell>
        <mxCell id="PPqwNFoW7ynKlwEGEWu8-10" value="Установить цвет пикселя" style="rounded=0;whiteSpace=wrap;html=1;absoluteArcSize=1;arcSize=14;strokeWidth=1;" vertex="1" parent="WIyWlLk6GJQsqaUBKTNV-1">
          <mxGeometry x="105" y="585" width="130" height="60" as="geometry" />
        </mxCell>
        <mxCell id="PPqwNFoW7ynKlwEGEWu8-17" style="edgeStyle=orthogonalEdgeStyle;rounded=0;orthogonalLoop=1;jettySize=auto;html=1;exitX=0.5;exitY=1;exitDx=0;exitDy=0;entryX=0.5;entryY=0;entryDx=0;entryDy=0;" edge="1" parent="WIyWlLk6GJQsqaUBKTNV-1" source="PPqwNFoW7ynKlwEGEWu8-14" target="PPqwNFoW7ynKlwEGEWu8-15">
          <mxGeometry relative="1" as="geometry" />
        </mxCell>
        <mxCell id="PPqwNFoW7ynKlwEGEWu8-14" value="Для каждого пикселя" style="shape=loopLimit;whiteSpace=wrap;html=1;flipV=1;" vertex="1" parent="WIyWlLk6GJQsqaUBKTNV-1">
          <mxGeometry x="105" y="670" width="130" height="60" as="geometry" />
        </mxCell>
        <mxCell id="PPqwNFoW7ynKlwEGEWu8-15" value="Для каждого кадра" style="shape=loopLimit;whiteSpace=wrap;html=1;flipV=1;" vertex="1" parent="WIyWlLk6GJQsqaUBKTNV-1">
          <mxGeometry x="105" y="760" width="130" height="60" as="geometry" />
        </mxCell>
        <mxCell id="PPqwNFoW7ynKlwEGEWu8-16" style="edgeStyle=orthogonalEdgeStyle;rounded=0;orthogonalLoop=1;jettySize=auto;html=1;exitX=0.5;exitY=1;exitDx=0;exitDy=0;entryX=0.5;entryY=0;entryDx=0;entryDy=0;entryPerimeter=0;" edge="1" parent="WIyWlLk6GJQsqaUBKTNV-1" source="PPqwNFoW7ynKlwEGEWu8-15" target="Vov0EzuTKuRAHN_TWs5X-25">
          <mxGeometry relative="1" as="geometry" />
        </mxCell>
        <mxCell id="PPqwNFoW7ynKlwEGEWu8-28" style="edgeStyle=orthogonalEdgeStyle;rounded=0;orthogonalLoop=1;jettySize=auto;html=1;exitX=0.5;exitY=1;exitDx=0;exitDy=0;entryX=0.5;entryY=0;entryDx=0;entryDy=0;" edge="1" parent="WIyWlLk6GJQsqaUBKTNV-1" source="PPqwNFoW7ynKlwEGEWu8-24" target="PPqwNFoW7ynKlwEGEWu8-27">
          <mxGeometry relative="1" as="geometry" />
        </mxCell>
        <mxCell id="PPqwNFoW7ynKlwEGEWu8-24" value="&lt;font style=&quot;border-color: var(--border-color); font-size: 10px;&quot;&gt;i:=0&lt;/font&gt;&lt;font style=&quot;border-color: var(--border-color); font-size: 10px;&quot;&gt;&lt;br style=&quot;border-color: var(--border-color);&quot;&gt;&lt;font style=&quot;border-color: var(--border-color);&quot;&gt;color:=rgb(0,0,0)&lt;/font&gt;&lt;/font&gt;" style="rounded=0;whiteSpace=wrap;html=1;absoluteArcSize=1;arcSize=14;strokeWidth=1;" vertex="1" parent="WIyWlLk6GJQsqaUBKTNV-1">
          <mxGeometry x="310" y="150" width="130" height="60" as="geometry" />
        </mxCell>
        <mxCell id="PPqwNFoW7ynKlwEGEWu8-29" style="edgeStyle=orthogonalEdgeStyle;rounded=0;orthogonalLoop=1;jettySize=auto;html=1;exitX=0;exitY=0.5;exitDx=0;exitDy=0;endArrow=none;endFill=0;" edge="1" parent="WIyWlLk6GJQsqaUBKTNV-1" source="PPqwNFoW7ynKlwEGEWu8-27">
          <mxGeometry relative="1" as="geometry">
            <mxPoint x="375" y="510" as="targetPoint" />
            <Array as="points">
              <mxPoint x="290" y="290" />
              <mxPoint x="290" y="510" />
            </Array>
          </mxGeometry>
        </mxCell>
        <mxCell id="PPqwNFoW7ynKlwEGEWu8-31" style="edgeStyle=orthogonalEdgeStyle;rounded=0;orthogonalLoop=1;jettySize=auto;html=1;exitX=0.5;exitY=1;exitDx=0;exitDy=0;entryX=0.5;entryY=0;entryDx=0;entryDy=0;" edge="1" parent="WIyWlLk6GJQsqaUBKTNV-1" source="PPqwNFoW7ynKlwEGEWu8-27" target="PPqwNFoW7ynKlwEGEWu8-30">
          <mxGeometry relative="1" as="geometry" />
        </mxCell>
        <mxCell id="PPqwNFoW7ynKlwEGEWu8-27" value="&lt;font style=&quot;font-size: 9px;&quot;&gt;i &amp;lt;&lt;br style=&quot;border-color: var(--border-color);&quot;&gt;MAX_BOUNCE_COUNT&lt;br&gt;&lt;br&gt;&lt;/font&gt;" style="rhombus;whiteSpace=wrap;html=1;" vertex="1" parent="WIyWlLk6GJQsqaUBKTNV-1">
          <mxGeometry x="310" y="260" width="130" height="60" as="geometry" />
        </mxCell>
        <mxCell id="PPqwNFoW7ynKlwEGEWu8-32" style="edgeStyle=orthogonalEdgeStyle;rounded=0;orthogonalLoop=1;jettySize=auto;html=1;exitX=0.5;exitY=1;exitDx=0;exitDy=0;entryX=0.5;entryY=0;entryDx=0;entryDy=0;" edge="1" parent="WIyWlLk6GJQsqaUBKTNV-1" source="PPqwNFoW7ynKlwEGEWu8-30">
          <mxGeometry relative="1" as="geometry">
            <mxPoint x="375" y="440" as="targetPoint" />
          </mxGeometry>
        </mxCell>
        <mxCell id="PPqwNFoW7ynKlwEGEWu8-30" value="Поиск пересечения луча с геометрией сцены" style="shape=process;whiteSpace=wrap;html=1;backgroundOutline=1;" vertex="1" parent="WIyWlLk6GJQsqaUBKTNV-1">
          <mxGeometry x="308.5" y="340" width="133" height="60" as="geometry" />
        </mxCell>
        <mxCell id="PPqwNFoW7ynKlwEGEWu8-38" style="edgeStyle=orthogonalEdgeStyle;rounded=0;orthogonalLoop=1;jettySize=auto;html=1;exitX=0.5;exitY=1;exitDx=0;exitDy=0;entryX=0.5;entryY=0;entryDx=0;entryDy=0;" edge="1" parent="WIyWlLk6GJQsqaUBKTNV-1" source="PPqwNFoW7ynKlwEGEWu8-33" target="PPqwNFoW7ynKlwEGEWu8-37">
          <mxGeometry relative="1" as="geometry" />
        </mxCell>
        <mxCell id="PPqwNFoW7ynKlwEGEWu8-45" style="edgeStyle=orthogonalEdgeStyle;rounded=0;orthogonalLoop=1;jettySize=auto;html=1;exitX=1;exitY=0.5;exitDx=0;exitDy=0;entryX=0.5;entryY=0;entryDx=0;entryDy=0;" edge="1" parent="WIyWlLk6GJQsqaUBKTNV-1" source="PPqwNFoW7ynKlwEGEWu8-33" target="PPqwNFoW7ynKlwEGEWu8-43">
          <mxGeometry relative="1" as="geometry" />
        </mxCell>
        <mxCell id="PPqwNFoW7ynKlwEGEWu8-46" value="Да" style="edgeLabel;html=1;align=center;verticalAlign=middle;resizable=0;points=[];" vertex="1" connectable="0" parent="PPqwNFoW7ynKlwEGEWu8-45">
          <mxGeometry x="-0.403" relative="1" as="geometry">
            <mxPoint x="-12" y="4" as="offset" />
          </mxGeometry>
        </mxCell>
        <mxCell id="PPqwNFoW7ynKlwEGEWu8-33" value="Пересечение &lt;br&gt;найдено&lt;span style=&quot;font-size: 10px;&quot;&gt;&lt;br&gt;&lt;/span&gt;" style="rhombus;whiteSpace=wrap;html=1;" vertex="1" parent="WIyWlLk6GJQsqaUBKTNV-1">
          <mxGeometry x="310" y="440" width="130" height="60" as="geometry" />
        </mxCell>
        <mxCell id="PPqwNFoW7ynKlwEGEWu8-40" style="edgeStyle=orthogonalEdgeStyle;rounded=0;orthogonalLoop=1;jettySize=auto;html=1;exitX=0.5;exitY=1;exitDx=0;exitDy=0;entryX=0.5;entryY=1;entryDx=0;entryDy=0;" edge="1" parent="WIyWlLk6GJQsqaUBKTNV-1" source="PPqwNFoW7ynKlwEGEWu8-37">
          <mxGeometry relative="1" as="geometry">
            <mxPoint x="375" y="665" as="targetPoint" />
          </mxGeometry>
        </mxCell>
        <mxCell id="PPqwNFoW7ynKlwEGEWu8-41" value="Да" style="edgeLabel;html=1;align=center;verticalAlign=middle;resizable=0;points=[];" vertex="1" connectable="0" parent="PPqwNFoW7ynKlwEGEWu8-40">
          <mxGeometry x="-0.3446" y="1" relative="1" as="geometry">
            <mxPoint x="14" y="4" as="offset" />
          </mxGeometry>
        </mxCell>
        <mxCell id="PPqwNFoW7ynKlwEGEWu8-42" style="edgeStyle=orthogonalEdgeStyle;rounded=0;orthogonalLoop=1;jettySize=auto;html=1;exitX=0;exitY=0.5;exitDx=0;exitDy=0;entryX=0.5;entryY=0;entryDx=0;entryDy=0;" edge="1" parent="WIyWlLk6GJQsqaUBKTNV-1" source="PPqwNFoW7ynKlwEGEWu8-37" target="PPqwNFoW7ynKlwEGEWu8-10">
          <mxGeometry relative="1" as="geometry" />
        </mxCell>
        <mxCell id="PPqwNFoW7ynKlwEGEWu8-37" value="&lt;font style=&quot;font-size: 9px;&quot;&gt;&lt;font style=&quot;font-size: 9px;&quot;&gt;i /=&lt;br style=&quot;border-color: var(--border-color);&quot;&gt;MAX_BOUNCE_COUNT&lt;br&gt;&lt;/font&gt;&amp;nbsp;&amp;nbsp;&lt;/font&gt;" style="rhombus;whiteSpace=wrap;html=1;" vertex="1" parent="WIyWlLk6GJQsqaUBKTNV-1">
          <mxGeometry x="310" y="535" width="130" height="60" as="geometry" />
        </mxCell>
        <mxCell id="PPqwNFoW7ynKlwEGEWu8-43" value="Вычислить характеристики рассеивания" style="shape=process;whiteSpace=wrap;html=1;backgroundOutline=1;" vertex="1" parent="WIyWlLk6GJQsqaUBKTNV-1">
          <mxGeometry x="503.5" y="420" width="133" height="60" as="geometry" />
        </mxCell>
        <mxCell id="PPqwNFoW7ynKlwEGEWu8-47" value="Вычислить цвет луча в точке отражения c" style="rounded=0;whiteSpace=wrap;html=1;absoluteArcSize=1;arcSize=14;strokeWidth=1;" vertex="1" parent="WIyWlLk6GJQsqaUBKTNV-1">
          <mxGeometry x="505" y="510" width="130" height="60" as="geometry" />
        </mxCell>
        <mxCell id="PPqwNFoW7ynKlwEGEWu8-48" value="color *= c&lt;br style=&quot;border-color: var(--border-color);&quot;&gt;i += 1" style="rounded=0;whiteSpace=wrap;html=1;absoluteArcSize=1;arcSize=14;strokeWidth=1;" vertex="1" parent="WIyWlLk6GJQsqaUBKTNV-1">
          <mxGeometry x="505" y="605" width="130" height="60" as="geometry" />
        </mxCell>
        <mxCell id="PPqwNFoW7ynKlwEGEWu8-49" value="color *= цвет фона" style="rounded=0;whiteSpace=wrap;html=1;absoluteArcSize=1;arcSize=14;strokeWidth=1;" vertex="1" parent="WIyWlLk6GJQsqaUBKTNV-1">
          <mxGeometry x="310" y="665" width="130" height="60" as="geometry" />
        </mxCell>
      </root>
    </mxGraphModel>
  </diagram>
</mxfile>
